# ffprobe output

[packets_and_frames.packet.0]
codec_type=audio
stream_index=0
pts=0
pts_time=0.000000
dts=0
dts_time=0.000000
duration=1024
duration_time=0.023220
convergence_duration=N/A
convergence_duration_time=N/A
size=2048
pos=642
flags=K

[packets_and_frames.frame.0]
media_type=audio
key_frame=1
pkt_pts=0
pkt_pts_time=0.000000
pkt_dts=0
pkt_dts_time=0.000000
best_effort_timestamp=0
best_effort_timestamp_time=0.000000
pkt_duration=1024
pkt_duration_time=0.023220
pkt_pos=642
pkt_size=2048
sample_fmt=s16
nb_samples=1024
channels=1
channel_layout=unknown

[packets_and_frames.packet.1]
codec_type=video
stream_index=1
pts=0
pts_time=0.000000
dts=0
dts_time=0.000000
duration=2048
duration_time=0.040000
convergence_duration=N/A
convergence_duration_time=N/A
size=230400
pos=2717
flags=K

[packets_and_frames.frame.1]
media_type=video
key_frame=1
pkt_pts=0
pkt_pts_time=0.000000
pkt_dts=0
pkt_dts_time=0.000000
best_effort_timestamp=0
best_effort_timestamp_time=0.000000
pkt_duration=2048
pkt_duration_time=0.040000
pkt_pos=2717
pkt_size=230400
width=320
height=240
pix_fmt=rgb24
sample_aspect_ratio=1\:1
pict_type=I
coded_picture_number=0
display_picture_number=0
interlaced_frame=0
top_field_first=0
repeat_pict=0

[packets_and_frames.packet.2]
codec_type=video
stream_index=2
pts=0
pts_time=0.000000
dts=0
dts_time=0.000000
duration=2048
duration_time=0.040000
convergence_duration=N/A
convergence_duration_time=N/A
size=30000
pos=233138
flags=K

[packets_and_frames.frame.2]
media_type=video
key_frame=1
pkt_pts=0
pkt_pts_time=0.000000
pkt_dts=0
pkt_dts_time=0.000000
best_effort_timestamp=0
best_effort_timestamp_time=0.000000
pkt_duration=2048
pkt_duration_time=0.040000
pkt_pos=233138
pkt_size=30000
width=100
height=100
pix_fmt=rgb24
sample_aspect_ratio=1\:1
pict_type=I
coded_picture_number=0
display_picture_number=0
interlaced_frame=0
top_field_first=0
repeat_pict=0

[packets_and_frames.packet.3]
codec_type=audio
stream_index=0
pts=1024
pts_time=0.023220
dts=1024
dts_time=0.023220
duration=1024
duration_time=0.023220
convergence_duration=N/A
convergence_duration_time=N/A
size=2048
pos=263143
flags=K

[packets_and_frames.frame.3]
media_type=audio
key_frame=1
pkt_pts=1024
pkt_pts_time=0.023220
pkt_dts=1024
pkt_dts_time=0.023220
best_effort_timestamp=1024
best_effort_timestamp_time=0.023220
pkt_duration=1024
pkt_duration_time=0.023220
pkt_pos=263143
pkt_size=2048
sample_fmt=s16
nb_samples=1024
channels=1
channel_layout=unknown

[packets_and_frames.packet.4]
codec_type=video
stream_index=1
pts=2048
pts_time=0.040000
dts=2048
dts_time=0.040000
duration=2048
duration_time=0.040000
convergence_duration=N/A
convergence_duration_time=N/A
size=230400
pos=265221
flags=K

[packets_and_frames.frame.4]
media_type=video
key_frame=1
pkt_pts=2048
pkt_pts_time=0.040000
pkt_dts=2048
pkt_dts_time=0.040000
best_effort_timestamp=2048
best_effort_timestamp_time=0.040000
pkt_duration=2048
pkt_duration_time=0.040000
pkt_pos=265221
pkt_size=230400
width=320
height=240
pix_fmt=rgb24
sample_aspect_ratio=1\:1
pict_type=I
coded_picture_number=0
display_picture_number=0
interlaced_frame=0
top_field_first=0
repeat_pict=0

[packets_and_frames.packet.5]
codec_type=video
stream_index=2
pts=2048
pts_time=0.040000
dts=2048
dts_time=0.040000
duration=2048
duration_time=0.040000
convergence_duration=N/A
convergence_duration_time=N/A
size=30000
pos=495645
flags=K

[packets_and_frames.frame.5]
media_type=video
key_frame=1
pkt_pts=2048
pkt_pts_time=0.040000
pkt_dts=2048
pkt_dts_time=0.040000
best_effort_timestamp=2048
best_effort_timestamp_time=0.040000
pkt_duration=2048
pkt_duration_time=0.040000
pkt_pos=495645
pkt_size=30000
width=100
height=100
pix_fmt=rgb24
sample_aspect_ratio=1\:1
pict_type=I
coded_picture_number=0
display_picture_number=0
interlaced_frame=0
top_field_first=0
repeat_pict=0

[packets_and_frames.packet.6]
codec_type=audio
stream_index=0
pts=2048
pts_time=0.046440
dts=2048
dts_time=0.046440
duration=1024
duration_time=0.023220
convergence_duration=N/A
convergence_duration_time=N/A
size=2048
pos=525650
flags=K

[packets_and_frames.frame.6]
media_type=audio
key_frame=1
pkt_pts=2048
pkt_pts_time=0.046440
pkt_dts=2048
pkt_dts_time=0.046440
best_effort_timestamp=2048
best_effort_timestamp_time=0.046440
pkt_duration=1024
pkt_duration_time=0.023220
pkt_pos=525650
pkt_size=2048
sample_fmt=s16
nb_samples=1024
channels=1
channel_layout=unknown

[packets_and_frames.packet.7]
codec_type=audio
stream_index=0
pts=3072
pts_time=0.069660
dts=3072
dts_time=0.069660
duration=1024
duration_time=0.023220
convergence_duration=N/A
convergence_duration_time=N/A
size=2048
pos=527721
flags=K

[packets_and_frames.frame.7]
media_type=audio
key_frame=1
pkt_pts=3072
pkt_pts_time=0.069660
pkt_dts=3072
pkt_dts_time=0.069660
best_effort_timestamp=3072
best_effort_timestamp_time=0.069660
pkt_duration=1024
pkt_duration_time=0.023220
pkt_pos=527721
pkt_size=2048
sample_fmt=s16
nb_samples=1024
channels=1
channel_layout=unknown

[packets_and_frames.packet.8]
codec_type=video
stream_index=1
pts=4096
pts_time=0.080000
dts=4096
dts_time=0.080000
duration=2048
duration_time=0.040000
convergence_duration=N/A
convergence_duration_time=N/A
size=230400
pos=529799
flags=K

[packets_and_frames.frame.8]
media_type=video
key_frame=1
pkt_pts=4096
pkt_pts_time=0.080000
pkt_dts=4096
pkt_dts_time=0.080000
best_effort_timestamp=4096
best_effort_timestamp_time=0.080000
pkt_duration=2048
pkt_duration_time=0.040000
pkt_pos=529799
pkt_size=230400
width=320
height=240
pix_fmt=rgb24
sample_aspect_ratio=1\:1
pict_type=I
coded_picture_number=0
display_picture_number=0
interlaced_frame=0
top_field_first=0
repeat_pict=0

[packets_and_frames.packet.9]
codec_type=video
stream_index=2
pts=4096
pts_time=0.080000
dts=4096
dts_time=0.080000
duration=2048
duration_time=0.040000
convergence_duration=N/A
convergence_duration_time=N/A
size=30000
pos=760223
flags=K

[packets_and_frames.frame.9]
media_type=video
key_frame=1
pkt_pts=4096
pkt_pts_time=0.080000
pkt_dts=4096
pkt_dts_time=0.080000
best_effort_timestamp=4096
best_effort_timestamp_time=0.080000
pkt_duration=2048
pkt_duration_time=0.040000
pkt_pos=760223
pkt_size=30000
width=100
height=100
pix_fmt=rgb24
sample_aspect_ratio=1\:1
pict_type=I
coded_picture_number=0
display_picture_number=0
interlaced_frame=0
top_field_first=0
repeat_pict=0

[packets_and_frames.packet.10]
codec_type=audio
stream_index=0
pts=4096
pts_time=0.092880
dts=4096
dts_time=0.092880
duration=1024
duration_time=0.023220
convergence_duration=N/A
convergence_duration_time=N/A
size=2048
pos=790228
flags=K

[packets_and_frames.frame.10]
media_type=audio
key_frame=1
pkt_pts=4096
pkt_pts_time=0.092880
pkt_dts=4096
pkt_dts_time=0.092880
best_effort_timestamp=4096
best_effort_timestamp_time=0.092880
pkt_duration=1024
pkt_duration_time=0.023220
pkt_pos=790228
pkt_size=2048
sample_fmt=s16
nb_samples=1024
channels=1
channel_layout=unknown

[packets_and_frames.packet.11]
codec_type=audio
stream_index=0
pts=5120
pts_time=0.116100
dts=5120
dts_time=0.116100
duration=1024
duration_time=0.023220
convergence_duration=N/A
convergence_duration_time=N/A
size=2048
pos=792299
flags=K

[packets_and_frames.frame.11]
media_type=audio
key_frame=1
pkt_pts=5120
pkt_pts_time=0.116100
pkt_dts=5120
pkt_dts_time=0.116100
best_effort_timestamp=5120
best_effort_timestamp_time=0.116100
pkt_duration=1024
pkt_duration_time=0.023220
pkt_pos=792299
pkt_size=2048
sample_fmt=s16
nb_samples=1024
channels=1
channel_layout=unknown

[packets_and_frames.packet.12]
codec_type=video
stream_index=1
pts=6144
pts_time=0.120000
dts=6144
dts_time=0.120000
duration=2048
duration_time=0.040000
convergence_duration=N/A
convergence_duration_time=N/A
size=230400
pos=794377
flags=K

[packets_and_frames.frame.12]
media_type=video
key_frame=1
pkt_pts=6144
pkt_pts_time=0.120000
pkt_dts=6144
pkt_dts_time=0.120000
best_effort_timestamp=6144
best_effort_timestamp_time=0.120000
pkt_duration=2048
pkt_duration_time=0.040000
pkt_pos=794377
pkt_size=230400
width=320
height=240
pix_fmt=rgb24
sample_aspect_ratio=1\:1
pict_type=I
coded_picture_number=0
display_picture_number=0
interlaced_frame=0
top_field_first=0
repeat_pict=0

[packets_and_frames.packet.13]
codec_type=video
stream_index=2
pts=6144
pts_time=0.120000
dts=6144
dts_time=0.120000
duration=2048
duration_time=0.040000
convergence_duration=N/A
convergence_duration_time=N/A
size=30000
pos=1024801
flags=K

[packets_and_frames.frame.13]
media_type=video
key_frame=1
pkt_pts=6144
pkt_pts_time=0.120000
pkt_dts=6144
pkt_dts_time=0.120000
best_effort_timestamp=6144
best_effort_timestamp_time=0.120000
pkt_duration=2048
pkt_duration_time=0.040000
pkt_pos=1024801
pkt_size=30000
width=100
height=100
pix_fmt=rgb24
sample_aspect_ratio=1\:1
pict_type=I
coded_picture_number=0
display_picture_number=0
interlaced_frame=0
top_field_first=0
repeat_pict=0

[streams.stream.0]
index=0
codec_name=pcm_s16le
profile=unknown
codec_type=audio
codec_time_base=1/44100
codec_tag_string=PSD[16]
codec_tag=0x10445350
sample_fmt=s16
sample_rate=44100
channels=1
channel_layout=unknown
bits_per_sample=16
id=N/A
r_frame_rate=0/0
avg_frame_rate=0/0
time_base=1/44100
start_pts=0
start_time=0.000000
duration_ts=N/A
duration=N/A
bit_rate=705600
max_bit_rate=N/A
bits_per_raw_sample=N/A
nb_frames=N/A
nb_read_frames=6
nb_read_packets=6

[streams.stream.0.disposition]
default=0
dub=0
original=0
comment=0
lyrics=0
karaoke=0
forced=0
hearing_impaired=0
visual_impaired=0
clean_effects=0
attached_pic=0

[streams.stream.0.tags]
E=mc²
encoder=Lavc pcm_s16le

[streams.stream.1]
index=1
codec_name=rawvideo
profile=unknown
codec_type=video
codec_time_base=1/51200
codec_tag_string=RGB[24]
codec_tag=0x18424752
width=320
height=240
has_b_frames=0
sample_aspect_ratio=1\:1
display_aspect_ratio=4\:3
pix_fmt=rgb24
level=-99
color_range=N/A
color_space=unknown
color_transfer=unknown
color_primaries=unknown
chroma_location=unspecified
timecode=N/A
id=N/A
r_frame_rate=25/1
avg_frame_rate=25/1
time_base=1/51200
start_pts=0
start_time=0.000000
duration_ts=N/A
duration=N/A
bit_rate=N/A
max_bit_rate=N/A
bits_per_raw_sample=N/A
nb_frames=N/A
nb_read_frames=4
nb_read_packets=4

[streams.stream.1.disposition]
default=0
dub=0
original=0
comment=0
lyrics=0
karaoke=0
forced=0
hearing_impaired=0
visual_impaired=0
clean_effects=0
attached_pic=0

[streams.stream.1.tags]
title=foobar
duration_ts=field-and-tags-conflict-attempt
encoder=Lavc rawvideo

[streams.stream.2]
index=2
codec_name=rawvideo
profile=unknown
codec_type=video
codec_time_base=1/51200
codec_tag_string=RGB[24]
codec_tag=0x18424752
width=100
height=100
has_b_frames=0
sample_aspect_ratio=1\:1
display_aspect_ratio=1\:1
pix_fmt=rgb24
level=-99
color_range=N/A
color_space=unknown
color_transfer=unknown
color_primaries=unknown
chroma_location=unspecified
timecode=N/A
id=N/A
r_frame_rate=25/1
avg_frame_rate=25/1
time_base=1/51200
start_pts=0
start_time=0.000000
duration_ts=N/A
duration=N/A
bit_rate=N/A
max_bit_rate=N/A
bits_per_raw_sample=N/A
nb_frames=N/A
nb_read_frames=4
nb_read_packets=4

[streams.stream.2.disposition]
default=0
dub=0
original=0
comment=0
lyrics=0
karaoke=0
forced=0
hearing_impaired=0
visual_impaired=0
clean_effects=0
attached_pic=0

[streams.stream.2.tags]
encoder=Lavc rawvideo

[format]
filename=tests/data/ffprobe-test.nut
nb_streams=3
nb_programs=0
format_name=nut
start_time=0.000000
duration=0.120000
size=1054882
bit_rate=70325466
probe_score=100

[format.tags]
title=ffprobe test file
comment='A comment with CSV, XML & JSON special chars'\: <tag value\="x">
comment2=I ♥ Üñîçød€
